<svg width="414" height="736" viewBox="0 0 414 736" fill="none" xmlns="http://www.w3.org/2000/svg">
<g clip-path="url(#clip0)">
<path fill-rule="evenodd" clip-rule="evenodd" d="M713.394 51.31C660.08 129.922 537.388 49.4874 442.466 53.7155C355.996 57.5672 265.381 126.804 196.523 74.333C121.89 17.4604 118.701 -91.5144 129.634 -184.671C141.021 -281.689 166.343 -394.167 256.048 -432.842C341.036 -469.483 427.807 -396.952 505.607 -346.765C559.343 -312.101 585.697 -257.791 615.284 -201.109C659.234 -116.91 766.683 -27.267 713.394 51.31Z" fill="url(#paint0_linear)"/>
<path fill-rule="evenodd" clip-rule="evenodd" d="M413.898 -66.3288C429.298 -68.4699 444.354 -68.5959 459.778 -69.9196C470.222 -70.8159 480.987 -68.6246 490.841 -72.9318C504.405 -78.8614 512.932 -94.3517 526.827 -99.2288C542.044 -104.57 567.241 -115.999 573.654 -102.001C582.742 -82.165 556.712 -58.56 555.81 -35.9676C555.448 -26.8915 569.918 -23.4804 570.16 -14.4499C570.413 -5.00704 553.898 2.85133 557.081 11.4944C564.539 31.7453 588.391 40.5507 597.559 59.9538C616.278 99.5688 667.064 147.085 638.891 184.633C614.681 216.899 571.844 153.489 536.124 141.832C519.776 136.496 502.502 131.218 484.95 134.394C462.454 138.465 444.259 159.833 421.671 162.542C397.051 165.495 369.147 165.315 350.558 150.513C332.433 136.081 337.845 104.601 324.732 85.351C308.04 60.8452 264.023 53.3828 263.396 22.5553C262.777 -7.81529 295.052 -34.8675 321.962 -50.7601C349.673 -67.1255 382.924 -62.0227 413.898 -66.3288Z" fill="url(#paint1_linear)"/>
<ellipse cx="208.299" cy="1.73456" rx="3.29885" ry="3.78119" fill="white"/>
<ellipse cx="208.299" cy="12.2292" rx="3.29885" ry="3.78119" fill="white"/>
<ellipse cx="208.299" cy="22.7238" rx="3.29885" ry="3.78119" fill="white"/>
<ellipse cx="208.299" cy="33.2189" rx="3.29885" ry="3.78119" fill="white"/>
<ellipse cx="217.724" cy="1.73456" rx="3.29885" ry="3.78119" fill="white"/>
<ellipse cx="217.724" cy="12.2292" rx="3.29885" ry="3.78119" fill="white"/>
<ellipse cx="217.724" cy="22.7238" rx="3.29885" ry="3.78119" fill="white"/>
<ellipse cx="217.724" cy="33.2189" rx="3.29885" ry="3.78119" fill="white"/>
<ellipse cx="227.149" cy="1.73456" rx="3.29885" ry="3.78119" fill="white"/>
<ellipse cx="227.149" cy="12.2292" rx="3.29885" ry="3.78119" fill="white"/>
<ellipse cx="227.149" cy="22.7238" rx="3.29885" ry="3.78119" fill="white"/>
<ellipse cx="227.149" cy="33.2189" rx="3.29885" ry="3.78119" fill="white"/>
<ellipse cx="236.575" cy="1.73456" rx="3.29885" ry="3.78119" fill="white"/>
<ellipse cx="236.575" cy="12.2292" rx="3.29885" ry="3.78119" fill="white"/>
<ellipse cx="236.575" cy="22.7238" rx="3.29885" ry="3.78119" fill="white"/>
<ellipse cx="236.575" cy="33.2189" rx="3.29885" ry="3.78119" fill="white"/>
<ellipse cx="246" cy="1.73456" rx="3.29885" ry="3.78119" fill="white"/>
<ellipse cx="246" cy="12.2292" rx="3.29885" ry="3.78119" fill="white"/>
<ellipse cx="246" cy="22.7238" rx="3.29885" ry="3.78119" fill="white"/>
<ellipse cx="246" cy="33.2189" rx="3.29885" ry="3.78119" fill="white"/>
<ellipse cx="255.425" cy="1.73456" rx="3.29885" ry="3.78119" fill="white"/>
<ellipse cx="255.425" cy="12.2292" rx="3.29885" ry="3.78119" fill="white"/>
<ellipse cx="255.425" cy="22.7238" rx="3.29885" ry="3.78119" fill="white"/>
<ellipse cx="255.425" cy="33.2189" rx="3.29885" ry="3.78119" fill="white"/>
<ellipse cx="264.85" cy="1.73456" rx="3.29885" ry="3.78119" fill="white"/>
<ellipse cx="264.85" cy="12.2292" rx="3.29885" ry="3.78119" fill="white"/>
<ellipse cx="264.85" cy="22.7238" rx="3.29885" ry="3.78119" fill="white"/>
<ellipse cx="264.85" cy="33.2189" rx="3.29885" ry="3.78119" fill="white"/>
<ellipse cx="274.276" cy="1.73456" rx="3.29885" ry="3.78119" fill="white"/>
<ellipse cx="274.276" cy="12.2292" rx="3.29885" ry="3.78119" fill="white"/>
<ellipse cx="274.276" cy="22.7238" rx="3.29885" ry="3.78119" fill="white"/>
<ellipse cx="274.276" cy="33.2189" rx="3.29885" ry="3.78119" fill="white"/>
<ellipse cx="283.701" cy="1.73456" rx="3.29885" ry="3.78119" fill="white"/>
<ellipse cx="283.701" cy="12.2292" rx="3.29885" ry="3.78119" fill="white"/>
<ellipse cx="283.701" cy="22.7238" rx="3.29885" ry="3.78119" fill="white"/>
<ellipse cx="283.701" cy="33.2189" rx="3.29885" ry="3.78119" fill="white"/>
</g>
<defs>
<linearGradient id="paint0_linear" x1="553.268" y1="-314.737" x2="261.764" y2="118.445" gradientUnits="userSpaceOnUse">
<stop stop-color="#FFE259"/>
<stop offset="1" stop-color="#FFA751"/>
</linearGradient>
<linearGradient id="paint1_linear" x1="380.914" y1="176.334" x2="599.792" y2="-81.1775" gradientUnits="userSpaceOnUse">
<stop stop-color="#4B0082"/>
<stop offset="0.880208" stop-color="#9400D3"/>
</linearGradient>
<clipPath id="clip0">
<rect width="414" height="736" fill="white"/>
</clipPath>
</defs>
</svg>
