<svg width="414" height="736" viewBox="0 0 414 736" fill="none" xmlns="http://www.w3.org/2000/svg">
<g clip-path="url(#clip0)">
<path fill-rule="evenodd" clip-rule="evenodd" d="M263.898 -131.329C279.298 -133.47 294.354 -133.596 309.778 -134.92C320.222 -135.816 330.987 -133.625 340.841 -137.932C354.405 -143.861 362.932 -159.352 376.827 -164.229C392.044 -169.57 417.241 -180.999 423.654 -167.001C432.742 -147.165 406.712 -123.56 405.81 -100.968C405.448 -91.8915 419.918 -88.4804 420.16 -79.4499C420.413 -70.007 403.898 -62.1487 407.081 -53.5056C414.539 -33.2547 438.391 -24.4493 447.559 -5.04623C466.278 34.5688 517.064 82.0848 488.891 119.633C464.681 151.899 421.844 88.4894 386.124 76.832C369.776 71.4965 352.502 66.218 334.95 69.394C312.454 73.4647 294.259 94.8329 271.671 97.5421C247.051 100.495 219.147 100.315 200.558 85.513C182.433 71.0808 187.845 39.6007 174.732 20.351C158.04 -4.15482 114.023 -11.6172 113.396 -42.4447C112.777 -72.8153 145.052 -99.8675 171.962 -115.76C199.673 -132.126 232.924 -127.023 263.898 -131.329Z" fill="url(#paint0_linear)" fill-opacity="0.8"/>
<path fill-rule="evenodd" clip-rule="evenodd" d="M853.394 130.31C800.08 208.922 677.388 128.487 582.466 132.716C495.996 136.567 405.38 205.804 336.523 153.333C261.89 96.4604 258.701 -12.5144 269.634 -105.671C281.021 -202.689 306.343 -315.167 396.048 -353.842C481.036 -390.483 567.807 -317.952 645.607 -267.765C699.343 -233.101 725.697 -178.791 755.284 -122.109C799.234 -37.9103 906.683 51.733 853.394 130.31Z" fill="url(#paint1_linear)"/>
<ellipse cx="349.598" cy="77.4209" rx="3.9023" ry="4.07911" transform="rotate(180 349.598 77.4209)" fill="#5D0096"/>
<ellipse cx="349.598" cy="66.0992" rx="3.9023" ry="4.07911" transform="rotate(180 349.598 66.0992)" fill="#5D0096"/>
<ellipse cx="349.598" cy="54.7777" rx="3.9023" ry="4.07911" transform="rotate(180 349.598 54.7777)" fill="#5D0096"/>
<ellipse cx="349.598" cy="43.4561" rx="3.9023" ry="4.07911" transform="rotate(180 349.598 43.4561)" fill="#5D0096"/>
<ellipse cx="349.598" cy="32.1345" rx="3.9023" ry="4.07911" transform="rotate(180 349.598 32.1345)" fill="#5D0096"/>
<ellipse cx="349.598" cy="20.8129" rx="3.9023" ry="4.07911" transform="rotate(180 349.598 20.8129)" fill="#5D0096"/>
<ellipse cx="349.598" cy="9.49133" rx="3.9023" ry="4.07911" transform="rotate(180 349.598 9.49133)" fill="#5D0096"/>
<ellipse cx="349.598" cy="-1.83033" rx="3.9023" ry="4.07911" transform="rotate(180 349.598 -1.83033)" fill="#5D0096"/>
<ellipse cx="338.448" cy="77.4209" rx="3.9023" ry="4.07911" transform="rotate(180 338.448 77.4209)" fill="#5D0096"/>
<ellipse cx="338.448" cy="66.0992" rx="3.9023" ry="4.07911" transform="rotate(180 338.448 66.0992)" fill="#5D0096"/>
<ellipse cx="338.448" cy="54.7777" rx="3.9023" ry="4.07911" transform="rotate(180 338.448 54.7777)" fill="#5D0096"/>
<ellipse cx="338.448" cy="43.4562" rx="3.9023" ry="4.07911" transform="rotate(180 338.448 43.4562)" fill="#5D0096"/>
<ellipse cx="338.448" cy="32.1345" rx="3.9023" ry="4.07911" transform="rotate(180 338.448 32.1345)" fill="#5D0096"/>
<ellipse cx="338.448" cy="20.8129" rx="3.9023" ry="4.07911" transform="rotate(180 338.448 20.8129)" fill="#5D0096"/>
<ellipse cx="338.448" cy="9.49133" rx="3.9023" ry="4.07911" transform="rotate(180 338.448 9.49133)" fill="#5D0096"/>
<ellipse cx="338.448" cy="-1.83033" rx="3.9023" ry="4.07911" transform="rotate(180 338.448 -1.83033)" fill="#5D0096"/>
<ellipse cx="327.299" cy="77.4209" rx="3.9023" ry="4.07911" transform="rotate(180 327.299 77.4209)" fill="#5D0096"/>
<ellipse cx="327.299" cy="66.0992" rx="3.9023" ry="4.07911" transform="rotate(180 327.299 66.0992)" fill="#5D0096"/>
<ellipse cx="327.299" cy="54.7777" rx="3.9023" ry="4.07911" transform="rotate(180 327.299 54.7777)" fill="#5D0096"/>
<ellipse cx="327.299" cy="43.4562" rx="3.9023" ry="4.07911" transform="rotate(180 327.299 43.4562)" fill="#5D0096"/>
<ellipse cx="327.299" cy="32.1345" rx="3.9023" ry="4.07911" transform="rotate(180 327.299 32.1345)" fill="#5D0096"/>
<ellipse cx="327.299" cy="20.8129" rx="3.9023" ry="4.07911" transform="rotate(180 327.299 20.8129)" fill="#5D0096"/>
<ellipse cx="327.299" cy="9.49133" rx="3.9023" ry="4.07911" transform="rotate(180 327.299 9.49133)" fill="#5D0096"/>
<ellipse cx="327.299" cy="-1.83033" rx="3.9023" ry="4.07911" transform="rotate(180 327.299 -1.83033)" fill="#5D0096"/>
<ellipse cx="316.149" cy="77.4209" rx="3.9023" ry="4.07911" transform="rotate(180 316.149 77.4209)" fill="#5D0096"/>
<ellipse cx="316.149" cy="66.0992" rx="3.9023" ry="4.07911" transform="rotate(180 316.149 66.0992)" fill="#5D0096"/>
<ellipse cx="316.149" cy="54.7777" rx="3.9023" ry="4.07911" transform="rotate(180 316.149 54.7777)" fill="#5D0096"/>
<ellipse cx="316.149" cy="43.4562" rx="3.9023" ry="4.07911" transform="rotate(180 316.149 43.4562)" fill="#5D0096"/>
<ellipse cx="316.149" cy="32.1345" rx="3.9023" ry="4.07911" transform="rotate(180 316.149 32.1345)" fill="#5D0096"/>
<ellipse cx="316.149" cy="20.8129" rx="3.9023" ry="4.07911" transform="rotate(180 316.149 20.8129)" fill="#5D0096"/>
<ellipse cx="316.149" cy="9.49133" rx="3.9023" ry="4.07911" transform="rotate(180 316.149 9.49133)" fill="#5D0096"/>
<ellipse cx="316.149" cy="-1.83033" rx="3.9023" ry="4.07911" transform="rotate(180 316.149 -1.83033)" fill="#5D0096"/>
<ellipse cx="305" cy="77.4209" rx="3.9023" ry="4.07911" transform="rotate(180 305 77.4209)" fill="#5D0096"/>
<ellipse cx="305" cy="66.0992" rx="3.9023" ry="4.07911" transform="rotate(180 305 66.0992)" fill="#5D0096"/>
<ellipse cx="305" cy="54.7777" rx="3.9023" ry="4.07911" transform="rotate(180 305 54.7777)" fill="#5D0096"/>
<ellipse cx="305" cy="43.4561" rx="3.9023" ry="4.07911" transform="rotate(180 305 43.4561)" fill="#5D0096"/>
<ellipse cx="305" cy="32.1345" rx="3.9023" ry="4.07911" transform="rotate(180 305 32.1345)" fill="#5D0096"/>
<ellipse cx="305" cy="20.8129" rx="3.9023" ry="4.07911" transform="rotate(180 305 20.8129)" fill="#5D0096"/>
<ellipse cx="305" cy="9.49133" rx="3.9023" ry="4.07911" transform="rotate(180 305 9.49133)" fill="#5D0096"/>
<ellipse cx="305" cy="-1.83033" rx="3.9023" ry="4.07911" transform="rotate(180 305 -1.83033)" fill="#5D0096"/>
<ellipse cx="293.85" cy="77.4209" rx="3.9023" ry="4.07911" transform="rotate(180 293.85 77.4209)" fill="#5D0096"/>
<ellipse cx="293.85" cy="66.0992" rx="3.9023" ry="4.07911" transform="rotate(180 293.85 66.0992)" fill="#5D0096"/>
<ellipse cx="293.85" cy="54.7777" rx="3.9023" ry="4.07911" transform="rotate(180 293.85 54.7777)" fill="#5D0096"/>
<ellipse cx="293.85" cy="43.4561" rx="3.9023" ry="4.07911" transform="rotate(180 293.85 43.4561)" fill="#5D0096"/>
<ellipse cx="293.85" cy="32.1345" rx="3.9023" ry="4.07911" transform="rotate(180 293.85 32.1345)" fill="#5D0096"/>
<ellipse cx="293.85" cy="20.8129" rx="3.9023" ry="4.07911" transform="rotate(180 293.85 20.8129)" fill="#5D0096"/>
<ellipse cx="293.85" cy="9.49133" rx="3.9023" ry="4.07911" transform="rotate(180 293.85 9.49133)" fill="#5D0096"/>
<ellipse cx="293.85" cy="-1.83033" rx="3.9023" ry="4.07911" transform="rotate(180 293.85 -1.83033)" fill="#5D0096"/>
<ellipse cx="282.701" cy="77.4209" rx="3.9023" ry="4.07911" transform="rotate(180 282.701 77.4209)" fill="#5D0096"/>
<ellipse cx="282.701" cy="66.0992" rx="3.9023" ry="4.07911" transform="rotate(180 282.701 66.0992)" fill="#5D0096"/>
<ellipse cx="282.701" cy="54.7777" rx="3.9023" ry="4.07911" transform="rotate(180 282.701 54.7777)" fill="#5D0096"/>
<ellipse cx="282.701" cy="43.4561" rx="3.9023" ry="4.07911" transform="rotate(180 282.701 43.4561)" fill="#5D0096"/>
<ellipse cx="282.701" cy="32.1345" rx="3.9023" ry="4.07911" transform="rotate(180 282.701 32.1345)" fill="#5D0096"/>
<ellipse cx="282.701" cy="20.8129" rx="3.9023" ry="4.07911" transform="rotate(180 282.701 20.8129)" fill="#5D0096"/>
<ellipse cx="282.701" cy="9.49133" rx="3.9023" ry="4.07911" transform="rotate(180 282.701 9.49133)" fill="#5D0096"/>
<ellipse cx="282.701" cy="-1.83033" rx="3.9023" ry="4.07911" transform="rotate(180 282.701 -1.83033)" fill="#5D0096"/>
<ellipse cx="271.552" cy="77.4209" rx="3.9023" ry="4.07911" transform="rotate(180 271.552 77.4209)" fill="#5D0096"/>
<ellipse cx="271.552" cy="66.0992" rx="3.9023" ry="4.07911" transform="rotate(180 271.552 66.0992)" fill="#5D0096"/>
<ellipse cx="271.552" cy="54.7777" rx="3.9023" ry="4.07911" transform="rotate(180 271.552 54.7777)" fill="#5D0096"/>
<ellipse cx="271.552" cy="43.4561" rx="3.9023" ry="4.07911" transform="rotate(180 271.552 43.4561)" fill="#5D0096"/>
<ellipse cx="271.552" cy="32.1345" rx="3.9023" ry="4.07911" transform="rotate(180 271.552 32.1345)" fill="#5D0096"/>
<ellipse cx="271.552" cy="20.8129" rx="3.9023" ry="4.07911" transform="rotate(180 271.552 20.8129)" fill="#5D0096"/>
<ellipse cx="271.552" cy="9.49133" rx="3.9023" ry="4.07911" transform="rotate(180 271.552 9.49133)" fill="#5D0096"/>
<ellipse cx="271.552" cy="-1.83033" rx="3.9023" ry="4.07911" transform="rotate(180 271.552 -1.83033)" fill="#5D0096"/>
<ellipse cx="260.402" cy="77.4209" rx="3.9023" ry="4.07911" transform="rotate(180 260.402 77.4209)" fill="#5D0096"/>
<ellipse cx="260.402" cy="66.0992" rx="3.9023" ry="4.07911" transform="rotate(180 260.402 66.0992)" fill="#5D0096"/>
<ellipse cx="260.402" cy="54.7777" rx="3.9023" ry="4.07911" transform="rotate(180 260.402 54.7777)" fill="#5D0096"/>
<ellipse cx="260.402" cy="43.4562" rx="3.9023" ry="4.07911" transform="rotate(180 260.402 43.4562)" fill="#5D0096"/>
<ellipse cx="260.402" cy="32.1345" rx="3.9023" ry="4.07911" transform="rotate(180 260.402 32.1345)" fill="#5D0096"/>
<ellipse cx="260.402" cy="20.8129" rx="3.9023" ry="4.07911" transform="rotate(180 260.402 20.8129)" fill="#5D0096"/>
<ellipse cx="260.402" cy="9.49121" rx="3.9023" ry="4.07911" transform="rotate(180 260.402 9.49121)" fill="#5D0096"/>
<ellipse cx="260.402" cy="-1.83033" rx="3.9023" ry="4.07911" transform="rotate(180 260.402 -1.83033)" fill="#5D0096"/>
<rect x="-343" y="-419" width="1002" height="3460" stroke="#5D0096" stroke-width="10" stroke-dasharray="20 20"/>
</g>
<defs>
<linearGradient id="paint0_linear" x1="230.914" y1="111.334" x2="449.792" y2="-146.178" gradientUnits="userSpaceOnUse">
<stop stop-color="#4B0082"/>
<stop offset="0.880208" stop-color="#9400D3"/>
</linearGradient>
<linearGradient id="paint1_linear" x1="841.29" y1="-26.7605" x2="195.79" y2="200.239" gradientUnits="userSpaceOnUse">
<stop stop-color="#FFE000"/>
<stop offset="1" stop-color="#FFA751"/>
</linearGradient>
<clipPath id="clip0">
<rect width="414" height="736" fill="white"/>
</clipPath>
</defs>
</svg>
