<svg width="414" height="739" viewBox="0 0 414 739" fill="none" xmlns="http://www.w3.org/2000/svg">
<g clip-path="url(#clip0)">
<path fill-rule="evenodd" clip-rule="evenodd" d="M392.495 468.57C339.181 547.183 216.489 466.748 121.567 470.976C35.0971 474.827 -55.5184 544.065 -124.376 491.593C-199.009 434.721 -202.198 325.746 -191.265 232.589C-179.878 135.572 -154.556 23.0935 -64.8506 -15.5813C20.1373 -52.2223 106.908 20.3087 184.708 70.4953C238.444 105.159 264.798 159.469 294.385 216.151C338.335 300.35 445.784 389.993 392.495 468.57Z" fill="url(#paint0_linear)"/>
<path fill-rule="evenodd" clip-rule="evenodd" d="M325.696 490.289C276.278 534.712 195.687 498.457 131.27 481.844C79.7722 468.562 36.3719 439.545 -4.27292 405.188C-42.5837 372.803 -85.0482 339.198 -95.5083 290.146C-105.645 242.61 -66.2137 200.932 -58.0386 153.054C-47.4324 90.9384 -86.9434 12.1857 -40.745 -30.5785C4.1902 -72.1733 77.2931 -28.7636 138.563 -28.9326C201.57 -29.1065 269.763 -65.5093 322.936 -31.5822C376.516 2.6049 395.791 74.3974 399.885 137.807C403.477 193.431 355.229 236.318 343.754 290.835C329.663 357.783 376.529 444.593 325.696 490.289Z" fill="url(#paint1_linear)"/>
<circle cx="296.079" cy="241.079" r="4.07911" fill="#5D0096"/>
<circle cx="296.079" cy="252.401" r="4.07911" fill="#5D0096"/>
<circle cx="296.079" cy="263.722" r="4.07911" fill="#5D0096"/>
<circle cx="296.079" cy="275.044" r="4.07911" fill="#5D0096"/>
<circle cx="296.079" cy="286.366" r="4.07911" fill="#5D0096"/>
<circle cx="296.079" cy="297.687" r="4.07911" fill="#5D0096"/>
<circle cx="296.079" cy="309.009" r="4.07911" fill="#5D0096"/>
<circle cx="296.079" cy="320.33" r="4.07911" fill="#5D0096"/>
<circle cx="307.734" cy="241.079" r="4.07911" fill="#5D0096"/>
<circle cx="307.734" cy="252.401" r="4.07911" fill="#5D0096"/>
<circle cx="307.734" cy="263.722" r="4.07911" fill="#5D0096"/>
<circle cx="307.734" cy="275.044" r="4.07911" fill="#5D0096"/>
<circle cx="307.734" cy="286.366" r="4.07911" fill="#5D0096"/>
<circle cx="307.734" cy="297.687" r="4.07911" fill="#5D0096"/>
<circle cx="307.734" cy="309.009" r="4.07911" fill="#5D0096"/>
<circle cx="307.734" cy="320.33" r="4.07911" fill="#5D0096"/>
<circle cx="319.388" cy="241.079" r="4.07911" fill="#5D0096"/>
<circle cx="319.388" cy="252.401" r="4.07911" fill="#5D0096"/>
<circle cx="319.388" cy="263.722" r="4.07911" fill="#5D0096"/>
<circle cx="319.388" cy="275.044" r="4.07911" fill="#5D0096"/>
<circle cx="319.388" cy="286.366" r="4.07911" fill="#5D0096"/>
<circle cx="319.388" cy="297.687" r="4.07911" fill="#5D0096"/>
<circle cx="319.388" cy="309.009" r="4.07911" fill="#5D0096"/>
<circle cx="319.388" cy="320.33" r="4.07911" fill="#5D0096"/>
<circle cx="331.043" cy="241.079" r="4.07911" fill="#5D0096"/>
<circle cx="331.043" cy="252.401" r="4.07911" fill="#5D0096"/>
<circle cx="331.043" cy="263.722" r="4.07911" fill="#5D0096"/>
<circle cx="331.043" cy="275.044" r="4.07911" fill="#5D0096"/>
<circle cx="331.043" cy="286.366" r="4.07911" fill="#5D0096"/>
<circle cx="331.043" cy="297.687" r="4.07911" fill="#5D0096"/>
<circle cx="331.043" cy="309.009" r="4.07911" fill="#5D0096"/>
<circle cx="331.043" cy="320.33" r="4.07911" fill="#5D0096"/>
<circle cx="342.697" cy="241.079" r="4.07911" fill="#5D0096"/>
<circle cx="342.697" cy="252.401" r="4.07911" fill="#5D0096"/>
<circle cx="342.697" cy="263.722" r="4.07911" fill="#5D0096"/>
<circle cx="342.697" cy="275.044" r="4.07911" fill="#5D0096"/>
<circle cx="342.697" cy="286.366" r="4.07911" fill="#5D0096"/>
<circle cx="342.697" cy="297.687" r="4.07911" fill="#5D0096"/>
<circle cx="342.697" cy="309.009" r="4.07911" fill="#5D0096"/>
<circle cx="342.697" cy="320.33" r="4.07911" fill="#5D0096"/>
<circle cx="354.352" cy="241.079" r="4.07911" fill="#5D0096"/>
<circle cx="354.352" cy="252.401" r="4.07911" fill="#5D0096"/>
<circle cx="354.352" cy="263.722" r="4.07911" fill="#5D0096"/>
<circle cx="354.352" cy="275.044" r="4.07911" fill="#5D0096"/>
<circle cx="354.352" cy="286.366" r="4.07911" fill="#5D0096"/>
<circle cx="354.352" cy="297.687" r="4.07911" fill="#5D0096"/>
<circle cx="354.352" cy="309.009" r="4.07911" fill="#5D0096"/>
<circle cx="354.352" cy="320.33" r="4.07911" fill="#5D0096"/>
<circle cx="366.007" cy="241.079" r="4.07911" fill="#5D0096"/>
<circle cx="366.007" cy="252.401" r="4.07911" fill="#5D0096"/>
<circle cx="366.007" cy="263.722" r="4.07911" fill="#5D0096"/>
<circle cx="366.007" cy="275.044" r="4.07911" fill="#5D0096"/>
<circle cx="366.007" cy="286.366" r="4.07911" fill="#5D0096"/>
<circle cx="366.007" cy="297.687" r="4.07911" fill="#5D0096"/>
<circle cx="366.007" cy="309.009" r="4.07911" fill="#5D0096"/>
<circle cx="366.007" cy="320.33" r="4.07911" fill="#5D0096"/>
<circle cx="377.661" cy="241.079" r="4.07911" fill="#5D0096"/>
<circle cx="377.661" cy="252.401" r="4.07911" fill="#5D0096"/>
<circle cx="377.661" cy="263.722" r="4.07911" fill="#5D0096"/>
<circle cx="377.661" cy="275.044" r="4.07911" fill="#5D0096"/>
<circle cx="377.661" cy="286.366" r="4.07911" fill="#5D0096"/>
<circle cx="377.661" cy="297.687" r="4.07911" fill="#5D0096"/>
<circle cx="377.661" cy="309.009" r="4.07911" fill="#5D0096"/>
<circle cx="377.661" cy="320.33" r="4.07911" fill="#5D0096"/>
<circle cx="389.316" cy="241.079" r="4.07911" fill="#5D0096"/>
<circle cx="389.316" cy="252.401" r="4.07911" fill="#5D0096"/>
<circle cx="389.316" cy="263.722" r="4.07911" fill="#5D0096"/>
<circle cx="389.316" cy="275.044" r="4.07911" fill="#5D0096"/>
<circle cx="389.316" cy="286.366" r="4.07911" fill="#5D0096"/>
<circle cx="389.316" cy="297.687" r="4.07911" fill="#5D0096"/>
<circle cx="389.316" cy="309.009" r="4.07911" fill="#5D0096"/>
<circle cx="389.316" cy="320.33" r="4.07911" fill="#5D0096"/>
<circle cx="296.079" cy="331.67" r="4.07911" fill="#5D0096"/>
<circle cx="296.079" cy="342.991" r="4.07911" fill="#5D0096"/>
<circle cx="296.079" cy="354.313" r="4.07911" fill="#5D0096"/>
<circle cx="296.079" cy="365.634" r="4.07911" fill="#5D0096"/>
<circle cx="296.079" cy="376.956" r="4.07911" fill="#5D0096"/>
<circle cx="296.079" cy="388.278" r="4.07911" fill="#5D0096"/>
<circle cx="296.079" cy="399.599" r="4.07911" fill="#5D0096"/>
<circle cx="296.079" cy="410.921" r="4.07911" fill="#5D0096"/>
<circle cx="307.734" cy="331.67" r="4.07911" fill="#5D0096"/>
<circle cx="307.734" cy="342.991" r="4.07911" fill="#5D0096"/>
<circle cx="307.734" cy="354.313" r="4.07911" fill="#5D0096"/>
<circle cx="307.734" cy="365.634" r="4.07911" fill="#5D0096"/>
<circle cx="307.734" cy="376.956" r="4.07911" fill="#5D0096"/>
<circle cx="307.734" cy="388.278" r="4.07911" fill="#5D0096"/>
<circle cx="307.734" cy="399.599" r="4.07911" fill="#5D0096"/>
<circle cx="307.734" cy="410.921" r="4.07911" fill="#5D0096"/>
<circle cx="319.388" cy="331.67" r="4.07911" fill="#5D0096"/>
<circle cx="319.388" cy="342.991" r="4.07911" fill="#5D0096"/>
<circle cx="319.388" cy="354.313" r="4.07911" fill="#5D0096"/>
<circle cx="319.388" cy="365.634" r="4.07911" fill="#5D0096"/>
<circle cx="319.388" cy="376.956" r="4.07911" fill="#5D0096"/>
<circle cx="319.388" cy="388.278" r="4.07911" fill="#5D0096"/>
<circle cx="319.388" cy="399.599" r="4.07911" fill="#5D0096"/>
<circle cx="319.388" cy="410.921" r="4.07911" fill="#5D0096"/>
<circle cx="331.043" cy="331.67" r="4.07911" fill="#5D0096"/>
<circle cx="331.043" cy="342.991" r="4.07911" fill="#5D0096"/>
<circle cx="331.043" cy="354.313" r="4.07911" fill="#5D0096"/>
<circle cx="331.043" cy="365.634" r="4.07911" fill="#5D0096"/>
<circle cx="331.043" cy="376.956" r="4.07911" fill="#5D0096"/>
<circle cx="331.043" cy="388.278" r="4.07911" fill="#5D0096"/>
<circle cx="331.043" cy="399.599" r="4.07911" fill="#5D0096"/>
<circle cx="331.043" cy="410.921" r="4.07911" fill="#5D0096"/>
<circle cx="342.697" cy="331.67" r="4.07911" fill="#5D0096"/>
<circle cx="342.697" cy="342.991" r="4.07911" fill="#5D0096"/>
<circle cx="342.697" cy="354.313" r="4.07911" fill="#5D0096"/>
<circle cx="342.697" cy="365.634" r="4.07911" fill="#5D0096"/>
<circle cx="342.697" cy="376.956" r="4.07911" fill="#5D0096"/>
<circle cx="342.697" cy="388.278" r="4.07911" fill="#5D0096"/>
<circle cx="342.697" cy="399.599" r="4.07911" fill="#5D0096"/>
<circle cx="342.697" cy="410.921" r="4.07911" fill="#5D0096"/>
<circle cx="354.352" cy="331.67" r="4.07911" fill="#5D0096"/>
<circle cx="354.352" cy="342.991" r="4.07911" fill="#5D0096"/>
<circle cx="354.352" cy="354.313" r="4.07911" fill="#5D0096"/>
<circle cx="354.352" cy="365.634" r="4.07911" fill="#5D0096"/>
<circle cx="354.352" cy="376.956" r="4.07911" fill="#5D0096"/>
<circle cx="354.352" cy="388.278" r="4.07911" fill="#5D0096"/>
<circle cx="354.352" cy="399.599" r="4.07911" fill="#5D0096"/>
<circle cx="354.352" cy="410.921" r="4.07911" fill="#5D0096"/>
<circle cx="366.007" cy="331.67" r="4.07911" fill="#5D0096"/>
<circle cx="366.007" cy="342.991" r="4.07911" fill="#5D0096"/>
<circle cx="366.007" cy="354.313" r="4.07911" fill="#5D0096"/>
<circle cx="366.007" cy="365.634" r="4.07911" fill="#5D0096"/>
<circle cx="366.007" cy="376.956" r="4.07911" fill="#5D0096"/>
<circle cx="366.007" cy="388.278" r="4.07911" fill="#5D0096"/>
<circle cx="366.007" cy="399.599" r="4.07911" fill="#5D0096"/>
<circle cx="366.007" cy="410.921" r="4.07911" fill="#5D0096"/>
<circle cx="377.661" cy="331.67" r="4.07911" fill="#5D0096"/>
<circle cx="377.661" cy="342.991" r="4.07911" fill="#5D0096"/>
<circle cx="377.661" cy="354.313" r="4.07911" fill="#5D0096"/>
<circle cx="377.661" cy="365.634" r="4.07911" fill="#5D0096"/>
<circle cx="377.661" cy="376.956" r="4.07911" fill="#5D0096"/>
<circle cx="377.661" cy="388.278" r="4.07911" fill="#5D0096"/>
<circle cx="377.661" cy="399.599" r="4.07911" fill="#5D0096"/>
<circle cx="377.661" cy="410.921" r="4.07911" fill="#5D0096"/>
<circle cx="389.316" cy="331.67" r="4.07911" fill="#5D0096"/>
<circle cx="389.316" cy="342.991" r="4.07911" fill="#5D0096"/>
<circle cx="389.316" cy="354.313" r="4.07911" fill="#5D0096"/>
<circle cx="389.316" cy="365.634" r="4.07911" fill="#5D0096"/>
<circle cx="389.316" cy="376.956" r="4.07911" fill="#5D0096"/>
<circle cx="389.316" cy="388.278" r="4.07911" fill="#5D0096"/>
<circle cx="389.316" cy="399.599" r="4.07911" fill="#5D0096"/>
<circle cx="389.316" cy="410.921" r="4.07911" fill="#5D0096"/>
</g>
<defs>
<linearGradient id="paint0_linear" x1="380.391" y1="311.5" x2="-265.109" y2="538.5" gradientUnits="userSpaceOnUse">
<stop stop-color="#FFE000"/>
<stop offset="1" stop-color="#FFA751"/>
</linearGradient>
<linearGradient id="paint1_linear" x1="394.004" y1="52.8818" x2="-52.7765" y2="367.201" gradientUnits="userSpaceOnUse">
<stop stop-color="#9700D3"/>
<stop offset="1" stop-color="#4B0082"/>
</linearGradient>
<clipPath id="clip0">
<rect width="414" height="739" fill="white"/>
</clipPath>
</defs>
</svg>
