<svg width="131" height="181" viewBox="0 0 131 181" fill="none" xmlns="http://www.w3.org/2000/svg">
<path d="M0 0H107.095L119.047 14.4586L131 28.9172V181L114.625 166.006L98.25 181L81.875 166.006L65.5 181L49.125 166.006L32.75 181L16.375 166.006L0 181V0Z" fill="#EFE7F4"/>
<path d="M0 0H107.095L105.182 28.9172H131V181L114.625 166.006L98.25 181L81.875 166.006L65.5 181L49.125 166.006L32.75 181L16.375 166.006L0 181V0Z" fill="#EFE7F4"/>
<path d="M37.6655 98.8052H46.1558V100.625H37.6655V114H35.8462V100.625H12.0601V99.6138L35.4756 64.9453H37.6655V98.8052ZM14.8901 98.8052H35.8462V67.1353L33.0161 71.7847L14.8901 98.8052ZM80.6558 93.9873C80.6558 100.568 79.3755 105.667 76.8149 109.283C74.2544 112.877 70.6606 114.674 66.0337 114.674C61.4292 114.674 57.8242 112.854 55.2188 109.216C52.6133 105.577 51.3105 100.456 51.3105 93.8525V84.958C51.3105 78.4443 52.5908 73.3682 55.1514 69.7295C57.7344 66.0684 61.3394 64.2378 65.9663 64.2378C70.6157 64.2378 74.2207 66.0684 76.7812 69.7295C79.3643 73.3682 80.6558 78.4893 80.6558 85.0928V93.9873ZM78.8364 84.958C78.8364 79.0059 77.7134 74.3677 75.4673 71.0435C73.2437 67.7192 70.0767 66.0571 65.9663 66.0571C61.8335 66.0571 58.6553 67.7305 56.4316 71.0771C54.2305 74.4014 53.1299 79.0845 53.1299 85.1265V93.9199C53.1299 99.8496 54.2642 104.488 56.5327 107.834C58.8013 111.181 61.9683 112.854 66.0337 112.854C70.1216 112.854 73.2773 111.181 75.501 107.834C77.7246 104.488 78.8364 99.7935 78.8364 93.7515V84.958ZM113.269 98.8052H121.759V100.625H113.269V114H111.45V100.625H87.6636V99.6138L111.079 64.9453H113.269V98.8052ZM90.4937 98.8052H111.45V67.1353L108.62 71.7847L90.4937 98.8052Z" fill="#5D0096"/>
</svg>
